<?xml version="1.0" standalone="no"?>
<!DOCTYPE svg PUBLIC "-//W3C//DTD SVG 20010904//EN"
 "http://www.w3.org/TR/2001/REC-SVG-20010904/DTD/svg10.dtd">
<svg version="1.0" xmlns="http://www.w3.org/2000/svg"
 width="192.000000pt" height="192.000000pt" viewBox="0 0 192.000000 192.000000"
 preserveAspectRatio="xMidYMid meet">
<metadata>
Created by potrace 1.10, written by Peter Selinger 2001-2011
</metadata>
<g transform="translate(0.000000,192.000000) scale(0.100000,-0.100000)"
fill="#000000" stroke="none">
<path d="M1535 1808 c-30 -16 -45 -39 -45 -68 0 -19 27 -52 113 -137 132 -130
145 -139 192 -123 42 14 65 44 65 84 0 25 -19 48 -117 143 -104 99 -122 112
-153 112 -19 0 -44 -5 -55 -11z m154 -72 c42 -40 93 -89 115 -109 31 -28 38
-39 33 -60 -8 -31 -56 -52 -91 -41 -41 14 -236 203 -236 228 0 23 47 54 84 55
10 1 53 -32 95 -73z"/>
<path d="M1549 1769 l-21 -21 63 -65 c76 -77 120 -106 145 -96 13 5 16 3 11
-10 -7 -20 15 -39 37 -31 31 12 17 50 -16 45 -4 0 -5 6 -2 14 3 7 2 20 -3 27
-18 29 -163 158 -177 158 -9 0 -25 -9 -37 -21z m141 -77 c75 -69 83 -92 34
-92 -17 0 -49 22 -100 68 -40 37 -74 71 -74 75 0 5 35 -23 78 -62 67 -62 112
-87 112 -63 0 14 -113 106 -132 107 -23 2 -32 11 -23 24 12 21 32 10 105 -57z"/>
<path d="M650 1678 c-25 -11 -46 -24 -48 -29 -2 -4 -19 -13 -38 -19 -47 -16
-85 -52 -74 -70 7 -11 24 -3 82 37 40 28 92 60 116 72 23 12 42 24 42 26 0 10
-37 2 -80 -17z"/>
<path d="M1130 1581 c-58 -26 -204 -93 -325 -148 -121 -56 -330 -151 -465
-213 -135 -61 -257 -123 -273 -138 -62 -59 -62 -178 0 -268 15 -22 43 -68 63
-104 20 -36 63 -110 95 -165 32 -55 67 -116 78 -135 57 -102 73 -124 110 -147
45 -28 149 -44 161 -24 4 6 17 11 28 11 12 0 71 24 132 54 61 30 152 73 201
96 50 23 178 85 285 137 107 52 220 106 250 120 30 14 118 56 195 93 169 82
180 95 170 196 -7 64 -11 70 -123 227 -238 334 -307 423 -345 440 -61 29 -120
21 -237 -32z m200 29 c10 0 33 -12 50 -27 35 -29 42 -38 277 -362 161 -221
163 -224 163 -276 0 -39 -6 -60 -22 -80 -20 -25 -155 -95 -448 -232 -76 -36
-134 -63 -505 -243 -266 -128 -288 -136 -356 -120 -29 7 -66 25 -84 41 -20 18
-94 136 -188 302 -191 337 -177 307 -177 360 0 78 26 103 185 175 209 95 545
249 770 353 200 92 278 121 303 113 8 -2 22 -4 32 -4z"/>
<path d="M1220 1581 c-41 -16 -354 -160 -710 -326 -74 -34 -169 -77 -210 -94
-208 -88 -250 -120 -250 -187 0 -26 59 -138 200 -379 26 -44 63 -110 84 -147
68 -125 111 -158 203 -158 41 0 81 16 248 96 110 53 236 113 280 134 44 21
161 77 260 125 99 47 234 111 300 142 142 65 185 103 185 161 0 42 -19 71
-253 392 -141 193 -171 228 -214 246 -42 18 -68 17 -123 -5z m150 -28 c0 -5
-37 -24 -83 -44 -65 -28 -81 -40 -79 -54 3 -16 1 -17 -11 -7 -8 7 -22 10 -31
6 -9 -3 -16 -1 -16 4 0 6 9 14 20 17 23 7 25 16 8 33 -6 6 -8 15 -3 19 4 5 9
4 12 -2 13 -36 20 -36 94 0 76 36 89 40 89 28z m24 -32 c5 -8 -134 -81 -155
-81 -27 0 0 21 69 52 42 20 78 37 79 37 1 1 4 -3 7 -8z m-276 -33 c13 -13 -2
-38 -23 -38 -21 0 -36 25 -23 38 7 7 17 12 23 12 6 0 16 -5 23 -12z m306 -6
c3 -5 -17 -19 -44 -32 -46 -21 -48 -24 -39 -49 8 -19 7 -23 -1 -15 -9 9 -19 9
-41 0 -24 -9 -32 -8 -39 4 -12 20 2 31 70 59 30 13 59 27 65 32 11 11 22 11
29 1z m-399 -32 c6 -10 -124 -74 -133 -65 -3 3 -3 7 -1 9 3 3 121 64 126 66 1
0 5 -4 8 -10z m478 -88 c31 -44 57 -82 57 -86 0 -3 -7 -6 -16 -6 -10 0 -14 6
-11 14 3 8 0 17 -7 19 -7 3 -33 32 -57 66 -24 33 -50 61 -56 61 -7 0 -13 4
-13 9 0 13 23 20 36 10 6 -5 36 -44 67 -87z m-420 82 c3 -4 2 -15 -4 -25 -8
-16 -1 -31 37 -80 25 -33 43 -63 40 -66 -9 -9 -31 13 -71 72 -29 41 -36 60
-31 79 6 25 16 32 29 20z m135 -26 c17 -14 15 -53 -4 -72 -14 -15 -13 -19 6
-46 l21 -29 -30 -16 c-33 -17 -61 -20 -61 -6 0 5 13 14 30 21 29 12 29 13 12
35 -9 13 -28 28 -42 34 -21 9 -22 9 -2 5 32 -8 60 4 67 27 9 26 -11 49 -42 49
-26 0 -42 -25 -25 -42 13 -13 46 -2 37 12 -5 8 -11 7 -21 -1 -11 -9 -14 -8
-14 5 0 13 7 17 27 14 37 -4 43 -34 10 -49 -33 -15 -67 3 -67 37 0 40 59 53
98 22z m172 -3 c7 -8 18 -15 24 -15 11 -1 72 -78 82 -105 13 -33 -16 -12 -55
40 -25 33 -49 55 -61 55 -21 0 -34 15 -25 30 9 14 21 12 35 -5z m-376 -24 c10
-11 15 -25 11 -30 -3 -7 2 -11 14 -11 12 0 21 -7 21 -15 0 -8 -4 -15 -10 -15
-5 0 -22 -18 -36 -40 -34 -52 -41 -45 -15 15 19 43 19 48 5 71 -9 13 -21 24
-26 24 -5 0 -6 5 -3 10 9 15 20 12 39 -9z m-152 -46 c2 -19 2 -35 1 -35 -2 0
-15 12 -28 27 -25 30 -24 43 4 43 14 0 20 -9 23 -35z m118 10 c14 -17 5 -51
-16 -59 -41 -16 -90 29 -69 63 9 16 71 13 85 -4z m371 -11 c20 -24 -1 -49 -41
-49 -40 0 -61 25 -41 49 8 9 26 16 41 16 15 0 33 -7 41 -16z m-500 -51 c59
-19 168 -111 155 -131 -5 -8 -25 7 -60 42 -54 56 -87 71 -179 83 -48 6 -48 6
-41 -20 5 -22 2 -28 -17 -35 l-22 -9 21 -21 c12 -12 36 -23 55 -24 86 -4 97
-7 68 -19 -16 -6 -43 -6 -78 1 -46 10 -57 17 -80 52 -21 30 -24 44 -16 56 27
44 105 54 194 25z m612 -90 l66 -88 -41 -18 c-23 -9 -42 -16 -43 -15 -1 2 -29
40 -63 86 -34 45 -62 85 -62 87 0 6 53 34 66 35 7 0 41 -39 77 -87z m-328 5
l49 -73 9 36 c7 29 17 40 53 57 24 12 44 17 44 12 0 -5 -9 -33 -20 -62 -11
-28 -19 -52 -17 -53 1 -1 40 -10 86 -21 47 -10 86 -24 88 -29 2 -6 -17 -18
-42 -27 -40 -15 -50 -15 -92 -3 -26 8 -49 12 -52 10 -2 -3 6 -16 18 -29 l23
-24 -38 -20 -38 -19 -92 128 c-50 70 -94 132 -98 137 -9 15 24 52 47 52 16 0
36 -20 72 -72z m-321 49 c40 -29 -2 -80 -48 -59 -30 13 -34 46 -8 61 23 14 35
13 56 -2z m810 -62 c49 -70 51 -75 37 -75 -10 0 -101 121 -101 134 0 20 24 -2
64 -59z m-1014 45 c10 -5 28 -26 40 -45 21 -34 21 -36 4 -81 -11 -30 -26 -49
-42 -55 -35 -13 -37 -5 -8 24 43 44 48 115 7 102 -13 -4 -27 1 -40 14 -19 19
-21 19 -41 3 -12 -10 -29 -42 -39 -72 l-18 -55 26 -5 c31 -7 36 1 21 30 -9 17
-8 26 5 46 24 38 85 30 85 -11 0 -27 -35 -44 -53 -26 -11 11 -9 12 15 15 6 0
13 7 16 14 3 9 -3 13 -19 10 -25 -3 -25 -7 -17 -78 3 -23 0 -25 -39 -23 -24 1
-43 -2 -43 -7 0 -6 8 -32 19 -59 18 -47 18 -61 0 -61 -4 0 -15 23 -24 51 -34
100 -1 229 67 262 39 19 53 21 78 7z m272 -25 c-2 -17 5 -40 17 -56 24 -33 26
-39 9 -39 -24 1 -60 70 -53 102 9 37 31 31 27 -7z m702 -25 c38 -52 41 -60 28
-60 -8 0 -82 93 -82 104 0 18 22 0 54 -44z m-638 -15 c9 -14 13 -29 9 -33 -7
-7 -45 34 -45 49 0 18 20 9 36 -16z m-506 0 c0 -8 -5 -15 -11 -15 -7 0 -9 -10
-4 -27 5 -23 4 -25 -9 -14 -9 8 -16 26 -16 42 0 22 5 29 20 29 11 0 20 -7 20
-15z m1133 -28 c17 -23 23 -38 16 -48 -12 -19 -11 -29 1 -29 6 0 10 7 10 15 0
17 16 20 26 4 11 -18 -21 -42 -46 -34 -18 6 -21 12 -17 34 4 17 -1 35 -13 51
-11 14 -20 28 -20 33 0 17 19 5 43 -26z m-1195 -10 c6 -7 7 -18 3 -26 -10 -16
-81 -26 -81 -11 0 5 4 10 9 10 5 0 11 9 14 20 6 23 39 27 55 7z m490 1 c14
-14 16 -38 4 -38 -5 0 -14 11 -20 25 -12 26 -4 33 16 13z m-90 -14 c25 -17 29
-46 7 -64 -20 -17 -36 -3 -29 26 6 23 4 25 -21 22 -37 -4 -43 -25 -11 -38 14
-5 26 -14 26 -20 0 -14 -53 -13 -68 2 -31 31 3 88 53 88 11 0 31 -7 43 -16z
m60 -5 c7 -12 11 -23 8 -26 -8 -9 -36 17 -36 33 0 20 13 17 28 -7z m-555 -32
c19 -15 26 -28 22 -39 -9 -23 -40 -32 -65 -18 -26 14 -25 35 2 54 25 18 17 21
-13 6 -26 -14 -24 -55 3 -74 14 -10 17 -16 9 -16 -22 0 -51 31 -51 53 0 25 28
57 49 57 9 0 29 -10 44 -23z m752 11 c15 -6 49 -43 76 -82 l49 -70 -32 -18
c-18 -9 -40 -17 -48 -17 -8 0 -33 27 -54 60 -33 51 -43 60 -65 57 -15 -2 -31
-14 -40 -29 -13 -23 -12 -28 14 -68 21 -32 33 -41 48 -37 48 12 98 -35 77 -75
-15 -27 -36 -18 -32 14 3 30 -10 41 -38 32 -26 -8 -26 -35 -1 -42 11 -3 22
-11 25 -19 9 -24 -33 -16 -57 10 -17 18 -27 22 -39 15 -13 -7 -24 3 -54 51
-40 62 -60 76 -94 65 -37 -12 -35 -48 6 -109 20 -31 35 -57 33 -59 -26 -17
-84 -37 -87 -29 -1 5 -30 49 -62 97 -33 48 -60 90 -60 94 0 4 16 15 36 25 34
16 37 16 49 0 11 -16 13 -15 18 8 9 36 64 62 114 56 36 -5 42 -3 52 18 24 53
108 79 166 52z m665 -3 c0 -4 -7 -19 -15 -35 -21 -41 -68 -64 -116 -56 -30 5
-51 0 -101 -24 -35 -17 -66 -26 -71 -21 -5 5 23 23 65 43 61 29 78 33 102 25
36 -12 96 13 96 41 0 10 3 22 7 25 8 8 33 9 33 2z m-1270 -25 c0 -6 -7 -13
-15 -16 -8 -4 -24 -37 -36 -74 -20 -68 -21 -68 -78 -94 -32 -14 -64 -26 -70
-26 -24 0 1 20 49 41 49 21 78 45 67 55 -2 3 -35 -10 -73 -28 -57 -28 -69 -39
-76 -66 -8 -28 -3 -42 32 -100 22 -38 40 -74 40 -80 0 -27 -18 -7 -63 70 -47
81 -48 84 -36 121 12 38 41 63 58 52 5 -3 11 0 13 6 2 6 28 21 58 34 47 20 56
28 65 60 11 36 28 55 53 55 6 0 12 -5 12 -10z m1090 1 c0 -14 -18 -24 -130
-75 -58 -26 -107 -50 -109 -52 -2 -2 2 -11 9 -19 9 -11 10 -19 2 -27 -7 -7
-15 -1 -27 22 -9 17 -15 33 -13 35 5 6 253 123 261 124 4 1 7 -3 7 -8z m-860
-33 c17 -22 18 -38 1 -38 -7 0 -31 43 -31 55 0 11 13 3 30 -17z m-31 -24 c14
-32 -5 -29 -27 4 -13 19 -13 22 0 22 8 0 20 -12 27 -26z m-39 -9 c7 -14 10
-28 7 -32 -8 -8 -36 26 -37 45 0 20 16 14 30 -13z m1170 16 c0 -8 -112 -61
-131 -61 -25 0 -3 20 49 43 61 28 82 32 82 18z m-1580 -11 c0 -10 -71 -50 -90
-50 -25 0 -6 19 38 38 56 25 52 24 52 12z m361 -28 c17 -26 18 -32 6 -32 -15
0 -47 41 -47 60 0 20 20 6 41 -28z m-231 24 c0 -6 -190 -96 -201 -96 -28 0 2
22 79 58 78 37 122 50 122 38z m1296 -47 c28 -17 34 -27 34 -54 0 -41 -20 -58
-70 -58 -76 0 -108 69 -54 112 33 26 48 26 90 0z m184 12 c0 -5 -20 -17 -45
-27 -48 -18 -57 -33 -25 -41 27 -7 26 -33 -1 -33 -15 0 -19 5 -15 15 3 9 0 15
-8 15 -7 0 -19 6 -26 14 -9 12 -3 19 37 40 50 26 83 33 83 17z m-1346 -32 l15
-30 -55 -26 c-41 -18 -60 -34 -71 -59 -15 -31 -15 -36 2 -68 27 -50 12 -56
-20 -8 l-26 39 20 45 c16 37 27 48 65 64 44 18 57 36 36 49 -15 9 -12 25 4 25
8 0 21 -14 30 -31z m799 -34 c20 -42 21 -76 5 -122 -8 -22 -19 -33 -31 -33
-18 0 -18 1 -3 25 20 31 21 97 1 135 -13 24 -13 30 -2 30 7 0 21 -16 30 -35z
m-43 -4 c16 -30 12 -88 -7 -106 -29 -30 -104 -57 -119 -44 -18 15 -18 34 1 63
8 13 14 34 13 47 -2 15 3 24 14 27 14 3 16 -3 14 -25 -2 -15 -10 -40 -17 -56
-17 -37 -6 -43 41 -22 52 24 61 54 35 118 -10 24 12 22 25 -2z m274 -25 c18
-20 40 -36 49 -36 20 0 63 -53 47 -58 -6 -2 -18 5 -26 17 -20 28 -33 27 -27
-1 5 -22 4 -22 -16 2 -11 14 -23 33 -27 43 -4 14 -12 17 -37 12 -30 -6 -31 -5
-13 9 19 15 18 16 -5 25 -17 6 -35 4 -59 -6 -19 -8 -41 -17 -47 -20 -30 -12
-9 18 25 37 51 28 94 20 136 -24z m-304 -8 c0 -17 -31 -68 -40 -68 -13 0 -13
6 6 41 11 22 12 34 5 43 -6 7 -8 16 -4 20 8 7 33 -21 33 -36z m-611 11 c23 -8
45 -31 81 -88 l49 -76 -32 -11 c-18 -7 -42 -10 -54 -7 -15 3 -25 -2 -32 -16
-24 -44 -116 -67 -155 -38 -12 9 -17 23 -14 47 3 32 8 38 71 68 70 35 78 52
24 52 -19 0 -41 -9 -57 -25 -25 -24 -29 -25 -59 -12 l-32 13 22 27 c21 28 63
54 109 68 36 11 43 10 79 -2z m278 -32 c18 -29 20 -37 8 -37 -8 0 -24 18 -36
41 -26 51 -5 48 28 -4z m853 -3 c0 -8 -8 -14 -17 -14 -10 0 -31 -7 -47 -15
-16 -9 -31 -13 -33 -11 -8 8 7 26 21 26 8 0 21 12 31 26 13 20 19 23 31 13 8
-6 14 -18 14 -25z m-285 -24 c-3 -5 7 -10 21 -12 35 -4 53 -31 35 -52 -31 -37
-102 -5 -80 36 9 16 7 24 -5 36 -10 11 -19 13 -26 6 -12 -12 -15 -63 -5 -86 9
-22 -8 -24 -24 -4 -8 10 -10 30 -6 60 6 37 12 47 34 55 21 7 29 5 43 -11 10
-11 16 -24 13 -28z m-1139 4 c-5 -20 7 -47 59 -132 42 -69 61 -110 55 -116 -5
-5 -11 -8 -13 -5 -2 2 -33 55 -70 117 -59 100 -65 115 -55 137 15 33 32 32 24
-1z m1024 -9 c0 -42 -30 -111 -41 -93 -4 6 -1 24 7 39 8 16 14 42 14 59 0 16
5 30 10 30 6 0 10 -16 10 -35z m-304 -44 c22 -4 42 -15 51 -28 15 -22 13 -23
-41 -48 -53 -24 -57 -25 -94 -10 -21 9 -48 29 -60 44 l-20 28 33 16 c31 15 33
15 54 -9 11 -13 30 -24 41 -24 11 0 20 -5 20 -11 0 -17 -62 -2 -77 17 -17 23
-36 8 -23 -16 16 -30 68 -40 108 -21 39 18 37 32 -9 44 -41 10 -64 31 -54 48
6 9 11 8 21 -6 8 -10 30 -21 50 -24z m240 -42 c8 -6 11 -16 8 -21 -3 -5 -12
-1 -18 8 -11 15 -12 13 -8 -14 4 -27 1 -32 -23 -38 -35 -9 -75 10 -75 35 0 44
76 63 116 30z m-402 -14 c22 -34 74 -65 109 -65 17 0 27 -5 27 -15 0 -46 -137
24 -171 88 -16 28 16 21 35 -8z m507 5 c5 0 9 -5 9 -11 0 -7 -9 -9 -21 -6 -15
4 -32 -7 -65 -39 -24 -25 -49 -42 -54 -39 -14 9 92 105 108 100 8 -3 18 -5 23
-5z m59 -6 c0 -9 -7 -14 -17 -12 -25 5 -28 28 -4 28 12 0 21 -6 21 -16z m-588
-30 c35 -39 98 -73 136 -74 12 0 22 -6 22 -14 0 -11 -8 -12 -41 -5 -23 6 -51
15 -63 21 -25 13 -106 89 -106 100 0 18 21 6 52 -28z m298 7 c0 -3 -4 -12 -8
-19 -7 -10 -12 -8 -26 7 -16 18 -16 19 9 19 14 0 25 -3 25 -7z m-364 -17 c13
-3 24 -12 24 -20 0 -10 -6 -11 -31 -2 -23 8 -41 7 -70 -2 -42 -14 -46 -19 -27
-38 6 -6 8 -15 4 -19 -4 -5 -14 0 -21 11 -14 18 -16 18 -77 -8 -73 -30 -109
-36 -115 -18 -3 8 6 12 25 12 16 0 76 22 133 49 57 28 110 48 117 45 8 -2 25
-7 38 -10z m326 -11 c22 -20 23 -37 2 -57 -30 -30 -94 -10 -94 29 0 20 29 45
52 45 12 0 30 -7 40 -17z m-150 -93 c67 -14 145 -3 163 22 16 24 60 48 86 48
10 0 23 -9 29 -20 8 -15 8 -20 -3 -20 -7 0 -18 5 -24 11 -20 20 -78 -21 -68
-48 5 -16 -11 -17 -20 -3 -5 8 -12 7 -21 -1 -9 -7 -43 -12 -82 -11 l-67 1 28
-21 c15 -11 25 -24 21 -29 -11 -18 -32 -8 -55 27 -26 39 -99 84 -99 61 0 -7 5
-18 12 -25 6 -6 8 -15 4 -19 -13 -14 -47 38 -40 61 5 17 4 19 -7 9 -15 -15
-39 -17 -39 -5 0 5 10 13 22 19 18 8 31 4 66 -18 24 -15 67 -33 94 -39z m-191
32 c19 -33 14 -85 -9 -104 -13 -11 -14 -10 -4 9 18 34 14 38 -9 9 -23 -29 -60
-34 -83 -10 -46 45 26 102 74 59 26 -24 33 5 9 36 -17 22 -19 22 -19 5 0 -16
-3 -17 -12 -8 -10 10 -10 15 2 22 24 15 34 12 51 -18z m-154 -33 c4 -23 -86
-57 -122 -47 -16 5 -47 6 -67 3 -44 -6 -50 6 -12 24 20 9 34 9 59 0 38 -14 79
-6 103 21 18 22 36 21 39 -1z m13 -52 c0 -7 -27 -26 -60 -42 -60 -29 -87 -65
-74 -100 4 -10 0 -15 -11 -15 -15 0 -17 6 -12 36 5 31 4 34 -14 29 -11 -4 -19
-2 -19 4 0 6 35 27 78 47 42 20 79 40 80 45 6 14 32 10 32 -4z m274 -9 c21
-30 20 -35 -9 -54 -46 -30 -105 17 -69 57 23 25 59 24 78 -3z m-106 -55 c17
-7 32 -18 32 -23 0 -13 -1 -13 -60 10 -68 27 -84 26 -169 -15 -81 -39 -81 -39
-81 -25 0 11 90 59 130 70 32 9 106 0 148 -17z m-60 -38 c17 -36 -4 -41 -23
-5 -13 24 -13 30 -2 30 8 0 19 -11 25 -25z m-33 -15 c9 -16 11 -30 6 -30 -6 0
-15 9 -21 21 -7 11 -14 18 -17 16 -2 -3 0 -14 5 -24 8 -15 6 -21 -14 -30 -22
-10 -26 -8 -39 18 -9 16 -11 29 -6 29 6 0 15 -9 21 -21 7 -11 14 -18 17 -16 3
3 0 14 -5 23 -9 17 0 28 35 43 1 1 9 -12 18 -29z m-82 -64 c-3 -5 -14 2 -24
15 -9 13 -15 28 -12 33 3 5 14 -2 24 -15 9 -13 15 -28 12 -33z m-63 23 c0 -5
6 -9 14 -9 8 0 16 -7 20 -15 3 -9 0 -15 -9 -15 -8 0 -15 5 -15 10 0 6 -5 10
-11 10 -5 0 -7 -5 -4 -10 12 -19 -23 -21 -44 -3 l-21 18 22 16 c21 17 48 15
48 -2z"/>
<path d="M921 1346 c-17 -20 13 -43 34 -26 12 10 13 16 4 26 -6 8 -15 14 -19
14 -4 0 -13 -6 -19 -14z"/>
<path d="M769 1239 c-11 -6 -11 -11 -2 -20 12 -12 43 -6 43 10 0 14 -25 20
-41 10z"/>
<path d="M251 1070 c-16 -9 -6 -30 15 -30 15 0 20 25 6 34 -4 2 -14 1 -21 -4z"/>
<path d="M1520 940 c-24 -24 -24 -29 -4 -58 27 -40 114 -20 114 26 0 21 -39
52 -65 52 -14 0 -34 -9 -45 -20z m78 1 c8 -4 12 -19 10 -32 -2 -20 -10 -25
-40 -27 -30 -3 -38 1 -43 18 -12 38 35 65 73 41z"/>
<path d="M1553 933 c-7 -3 -13 -11 -13 -18 0 -15 19 -24 38 -18 6 3 12 11 12
18 0 15 -19 24 -37 18z"/>
<path d="M512 742 c-32 -16 -40 -41 -15 -49 13 -5 63 43 63 58 0 11 -8 10 -48
-9z"/>
<path d="M1400 775 c0 -8 9 -15 20 -15 11 0 20 7 20 15 0 8 -9 15 -20 15 -11
0 -20 -7 -20 -15z"/>
<path d="M1142 703 c4 -22 43 -25 43 -3 0 8 -11 16 -23 18 -19 3 -23 0 -20
-15z"/>
<path d="M1013 653 c-15 -5 -17 -29 -4 -37 14 -9 41 4 41 19 0 15 -19 24 -37
18z"/>
<path d="M625 550 c-10 -17 20 -44 40 -36 9 3 15 14 13 23 -4 21 -43 30 -53
13z"/>
<path d="M797 504 c-16 -16 -6 -35 16 -32 12 2 22 10 22 18 0 16 -26 25 -38
14z"/>
<path d="M670 1603 c-8 -3 -44 -19 -80 -35 -35 -16 -74 -28 -86 -25 -13 2 -26
-3 -32 -13 -6 -10 -114 -62 -241 -116 -181 -77 -231 -103 -231 -117 0 -18 1
-18 28 1 15 10 83 42 152 71 168 71 320 143 320 154 0 4 4 6 9 3 12 -8 142 37
182 62 26 17 29 22 14 21 -11 0 -27 -3 -35 -6z"/>
<path d="M410 1580 c-57 -10 -402 -161 -408 -177 -7 -24 30 -13 163 47 117 53
157 70 162 70 3 0 20 7 39 16 19 9 45 14 59 12 14 -3 30 1 36 8 9 11 8 14 0
14 -7 0 -9 5 -6 10 3 6 5 9 3 9 -2 -1 -23 -5 -48 -9z"/>
<path d="M1887 519 c-9 -5 -22 -7 -27 -4 -6 3 -10 2 -10 -4 0 -6 -15 -14 -32
-20 -42 -12 -152 -56 -250 -100 -26 -12 -54 -21 -61 -21 -7 0 -17 -4 -23 -8
-5 -5 -27 -14 -50 -20 -43 -12 -148 -76 -183 -111 -33 -33 -11 -25 69 25 41
25 109 59 150 74 202 76 444 178 448 188 5 15 -7 15 -31 1z"/>
<path d="M1673 337 c-122 -50 -225 -97 -228 -105 -3 -9 -1 -20 5 -26 7 -7 10
-7 10 1 0 11 108 60 123 55 4 -1 7 3 7 8 0 6 6 10 13 10 28 0 317 124 317 137
0 7 -6 12 -12 12 -7 -1 -113 -42 -235 -92z"/>
<path d="M73 355 c-47 -20 -54 -68 -19 -128 43 -72 71 -97 109 -97 73 0 88 71
35 163 -27 48 -61 78 -86 77 -4 -1 -21 -7 -39 -15z m79 -19 c8 -8 27 -39 43
-69 29 -55 29 -56 10 -77 -34 -37 -74 -24 -117 40 -41 60 -47 94 -20 109 25
15 68 13 84 -3z"/>
<path d="M93 329 c-31 -11 -29 -25 12 -87 36 -53 62 -65 85 -37 9 11 5 25 -21
69 -37 62 -44 67 -76 55z m55 -66 c13 -23 18 -44 13 -47 -7 -5 -61 75 -61 91
0 17 29 -10 48 -44z"/>
<path d="M1323 199 c-50 -16 -61 -23 -56 -37 3 -9 -6 -3 -20 13 -25 29 -26 30
-44 11 -17 -18 -17 -18 5 -7 12 7 22 8 22 3 0 -11 -99 -52 -125 -52 -12 0 -15
-3 -10 -9 6 -6 47 -4 108 6 59 10 93 20 85 25 -9 5 -3 8 17 9 22 1 25 3 10 7
-14 4 0 12 50 28 39 12 59 22 45 22 -14 0 -53 -9 -87 -19z"/>
<path d="M1214 81 c-62 -19 -104 -38 -104 -47 0 -8 63 6 76 17 5 4 36 15 69
23 32 9 60 18 63 21 11 11 -45 3 -104 -14z"/>
</g>
</svg>
