<?xml version="1.0" standalone="no"?>
<!DOCTYPE svg PUBLIC "-//W3C//DTD SVG 20010904//EN"
 "http://www.w3.org/TR/2001/REC-SVG-20010904/DTD/svg10.dtd">
<svg version="1.0" xmlns="http://www.w3.org/2000/svg"
 width="1024.000000pt" height="1024.000000pt" viewBox="0 0 1024.000000 1024.000000"
 preserveAspectRatio="xMidYMid meet">

<g transform="translate(0.000000,1024.000000) scale(0.100000,-0.100000)"
fill="#000000" stroke="none">
<path d="M0 5120 l0 -5120 5120 0 5120 0 0 5120 0 5120 -5120 0 -5120 0 0
-5120z m5165 3001 c17 -10 99 -85 183 -167 136 -133 152 -153 152 -182 0 -18
-4 -42 -10 -52 -12 -23 -64 -41 -89 -32 -11 4 -76 62 -145 130 -69 67 -129
122 -134 122 -5 0 -64 -56 -131 -125 -116 -119 -124 -125 -162 -125 -54 0 -90
35 -85 81 3 26 35 63 173 201 181 180 190 185 248 149z m-948 -482 c38 -14 90
-65 114 -111 70 -137 -77 -310 -230 -269 -56 15 -109 55 -138 107 -51 89 -8
220 89 267 38 19 123 22 165 6z m1981 -8 c107 -55 148 -157 103 -257 -47 -103
-180 -150 -282 -98 -41 21 -97 90 -109 135 -21 79 31 182 112 222 45 23 130
22 176 -2z m-991 -160 c82 -68 353 -357 353 -376 0 -9 -6 -31 -14 -50 -16 -36
-48 -52 -88 -42 -13 4 -92 76 -177 162 -85 85 -157 155 -160 155 -3 0 -78 -72
-166 -160 -137 -135 -166 -160 -191 -160 -43 0 -78 40 -77 86 1 41 20 63 249
287 179 174 179 174 271 98z m-747 -206 c35 -18 50 -43 50 -82 0 -23 -21 -50
-103 -134 -56 -57 -134 -138 -172 -179 -161 -171 -157 -171 -322 -2 -160 163
-158 161 -139 205 8 21 28 42 46 52 46 24 74 9 171 -92 l81 -86 161 160 c138
137 171 166 195 172 2 1 16 -6 32 -14z m1391 4 c11 -6 82 -72 157 -147 75 -76
147 -146 160 -157 l22 -18 86 91 c76 82 89 92 121 92 25 0 43 -8 64 -29 47
-48 40 -69 -60 -179 -133 -147 -175 -182 -213 -182 -29 0 -56 23 -247 214
-209 209 -214 215 -207 248 11 60 69 93 117 67z m-648 -230 c89 -79 167 -176
167 -207 0 -20 -24 -50 -103 -129 -94 -94 -106 -103 -141 -103 -33 0 -47 8
-104 63 -136 128 -156 154 -147 189 4 14 53 73 110 131 125 130 133 132 218
56z m-1256 -461 c285 -285 313 -316 313 -346 0 -46 -38 -82 -87 -82 -35 0 -51
14 -345 308 -269 268 -308 311 -308 337 1 45 51 95 94 95 13 0 132 -112 333
-312z m656 291 c12 -6 133 -122 269 -257 l247 -245 53 50 c29 27 138 136 242
241 203 205 239 232 287 211 35 -14 63 -62 55 -93 -4 -11 -140 -157 -304 -324
-272 -277 -300 -303 -330 -302 -30 0 -61 28 -330 301 -288 292 -297 302 -300
344 -3 36 1 46 24 64 30 24 55 26 87 10z m2099 -16 c55 -53 56 -52 -279 -390
-329 -332 -344 -344 -398 -309 -33 22 -48 53 -40 84 4 17 118 139 313 335 284
284 309 307 341 307 24 0 44 -8 63 -27z m-3379 -174 c37 -40 35 -73 -7 -115
-43 -43 -65 -43 -110 0 -47 44 -47 77 -1 123 42 42 74 40 118 -8z m3704 21
c47 -28 68 -65 57 -98 -12 -35 -71 -74 -98 -66 -27 7 -86 69 -86 90 0 17 71
94 86 94 5 0 23 -9 41 -20z m-2674 -61 c12 -6 151 -140 310 -297 297 -297 303
-304 275 -355 -17 -34 -39 -46 -80 -47 -35 0 -52 15 -333 292 -162 160 -298
302 -301 314 -9 35 5 63 39 85 36 22 59 24 90 8z m1621 -11 c15 -13 29 -37 32
-55 6 -31 -3 -42 -271 -315 -153 -156 -289 -291 -304 -300 -39 -27 -83 -23
-113 10 -58 62 -70 45 264 378 270 271 307 304 335 304 19 0 42 -9 57 -22z
m-2838 -122 c48 -48 43 -94 -13 -124 -33 -18 -49 -15 -88 19 -43 38 -46 75 -9
113 36 35 69 33 110 -8z m4085 5 c16 -17 29 -40 29 -54 0 -32 -61 -87 -96 -87
-30 0 -74 41 -74 70 0 41 57 98 98 100 8 0 27 -13 43 -29z m-3745 4 c12 -8 27
-28 34 -45 10 -25 10 -34 -4 -55 -37 -56 -99 -57 -139 -3 -18 24 -18 30 -7 58
15 35 45 60 75 60 11 0 30 -7 41 -15z m3394 -21 c36 -41 35 -75 -2 -106 -48
-41 -131 -2 -131 62 0 24 7 40 27 57 39 33 68 29 106 -13z m-3873 -276 c144
-143 153 -160 112 -212 -16 -21 -29 -26 -62 -26 -40 0 -47 5 -169 127 -143
142 -152 162 -101 215 51 53 70 44 220 -104z m4474 103 c52 -53 44 -70 -99
-213 -120 -120 -130 -128 -167 -128 -52 0 -85 31 -85 80 0 33 11 47 128 163
112 110 133 127 161 127 23 0 41 -9 62 -29z m-724 -203 c35 -34 63 -71 63 -81
0 -21 -111 -137 -132 -137 -7 0 -42 29 -77 64 -49 49 -62 68 -57 84 7 20 118
132 132 132 5 0 37 -28 71 -62z m-3090 -10 c35 -34 63 -67 63 -72 0 -17 -123
-136 -140 -136 -19 0 -144 124 -139 138 9 26 116 131 134 131 11 1 46 -25 82
-61z m2714 -177 l29 -29 0 -298 0 -298 -36 -37 c-20 -20 -31 -39 -26 -43 10
-6 44 19 180 133 93 77 124 92 166 80 41 -11 76 -53 76 -89 0 -22 -11 -38 -47
-69 -98 -82 -453 -368 -527 -425 -43 -32 -76 -59 -74 -61 5 -5 325 -243 496
-368 88 -65 163 -125 166 -133 19 -50 -12 -105 -69 -124 -44 -15 -53 -10 -235
130 -74 57 -179 135 -235 174 -55 38 -126 87 -157 109 l-57 40 -88 -70 c-120
-95 -238 -183 -246 -183 -4 0 -7 317 -7 704 l0 704 25 31 c47 55 82 50 132
-16 l28 -36 5 -455 5 -454 55 43 c30 24 60 48 66 54 7 5 59 48 117 95 l106 85
1 384 0 383 34 34 c43 43 77 44 117 5z m1250 -12 l30 -32 -3 -499 -3 -500 -28
-24 c-32 -27 -66 -30 -106 -9 -51 26 -52 33 -49 554 l3 483 33 29 c44 40 85
39 123 -2z m-3422 -116 c11 -10 83 -119 159 -243 253 -410 629 -996 661 -1033
4 -4 7 267 7 602 l-1 610 34 35 c46 47 73 46 122 -3 l39 -39 0 -909 c0 -948 1
-933 -41 -933 -25 0 -46 30 -179 250 -65 107 -145 238 -178 290 -33 52 -164
262 -291 467 -127 205 -236 375 -241 378 -7 4 -10 -288 -10 -814 0 -580 -3
-827 -11 -844 -12 -27 -47 -47 -81 -47 -11 0 -38 17 -59 39 l-39 39 0 1066 c0
1053 0 1066 20 1086 25 25 61 26 89 3z m-987 -20 c18 -20 32 -55 47 -123 12
-52 41 -162 64 -245 l43 -150 70 -6 c86 -8 101 -14 120 -51 19 -36 13 -66 -20
-101 -21 -23 -34 -27 -77 -27 -41 0 -50 -3 -45 -15 12 -32 57 -186 86 -300 18
-66 81 -307 142 -535 60 -228 110 -430 111 -449 2 -46 -52 -96 -92 -86 -29 7
-58 30 -72 57 -9 17 -123 411 -175 606 l-27 102 -219 -2 -219 -3 -84 -332
c-46 -183 -92 -349 -102 -370 -32 -67 -110 -81 -153 -26 -34 44 -44 -8 155
798 63 253 121 481 129 508 l14 47 -48 0 c-65 0 -104 31 -104 84 0 59 29 80
121 86 l77 5 11 50 c100 425 110 460 136 486 29 29 80 25 111 -8z m3944 -7
l34 -34 0 -982 c0 -898 -1 -984 -17 -1010 -33 -56 -99 -66 -144 -21 l-29 29 0
997 0 997 29 29 c41 41 83 39 127 -5z m445 -1171 c16 -9 34 -27 39 -41 16 -40
13 -883 -3 -913 -29 -58 -122 -57 -157 2 -19 30 -20 53 -20 467 0 384 2 438
16 458 29 42 77 52 125 27z m-1282 -234 l81 -63 0 -335 c0 -396 -2 -403 -92
-403 -19 0 -39 10 -59 29 l-29 29 0 407 c0 247 4 405 9 403 5 -1 46 -32 90
-67z m-465 -37 c14 -5 16 -39 16 -278 0 -198 -4 -278 -13 -296 -30 -60 -123
-64 -157 -7 -18 29 -20 52 -20 254 l0 222 78 55 c42 31 78 56 79 56 1 0 8 -3
17 -6z m-2638 -423 c16 -15 46 -46 67 -68 l38 -40 -37 -44 c-34 -42 -77 -67
-117 -68 -23 -1 -117 86 -117 108 0 19 110 141 127 141 5 0 23 -13 39 -29z
m2017 -378 c40 -36 213 -206 385 -376 281 -280 312 -314 312 -343 0 -41 -47
-84 -92 -84 -35 0 -47 11 -440 398 -142 140 -262 252 -267 250 -6 -1 -111
-100 -233 -219 -415 -402 -445 -429 -479 -429 -43 0 -69 17 -85 55 -8 19 -14
38 -14 42 0 4 174 180 387 390 454 447 412 422 526 316z m-1579 -32 l69 -70
-24 -28 c-60 -72 -103 -113 -118 -113 -16 0 -141 118 -141 133 0 13 123 146
135 147 6 0 41 -31 79 -69z m3100 0 l69 -70 -42 -50 c-45 -54 -87 -91 -103
-91 -13 0 -138 120 -138 133 0 13 123 146 135 147 6 0 41 -31 79 -69z m-3678
40 c33 -20 55 -65 45 -93 -3 -9 -59 -71 -125 -138 -109 -110 -121 -120 -155
-120 -40 1 -62 14 -79 47 -25 46 -15 63 106 186 142 145 154 151 208 118z
m4302 -114 c102 -104 122 -129 122 -154 0 -42 -28 -72 -72 -80 -36 -5 -41 -2
-130 82 -155 146 -168 161 -168 194 0 39 49 81 94 81 28 0 48 -16 154 -123z
m-3165 -199 c33 -17 46 -39 47 -77 0 -31 -21 -55 -272 -306 -172 -171 -283
-274 -300 -278 -15 -4 -38 -3 -52 3 -31 11 -58 62 -51 93 4 13 129 148 278
300 288 294 292 297 350 265z m1907 -6 c14 -9 143 -137 288 -283 283 -287 288
-295 240 -346 -15 -16 -33 -23 -60 -23 -37 0 -50 11 -311 266 -150 146 -278
277 -285 290 -17 32 -8 57 29 89 36 29 64 32 99 7z m-965 -60 c6 -4 79 -78
163 -163 131 -135 152 -161 152 -188 0 -61 -66 -99 -123 -70 -12 6 -64 53
-114 105 -51 52 -100 94 -109 94 -9 0 -62 -47 -116 -105 -89 -94 -103 -105
-135 -105 -19 0 -43 5 -54 10 -21 12 -49 60 -49 86 0 9 73 90 162 180 126 128
167 164 187 164 14 0 31 -4 36 -8z m-2010 -37 c34 -33 31 -63 -7 -102 -39 -41
-78 -43 -113 -8 -33 33 -32 70 4 106 38 37 82 39 116 4z m346 -4 c37 -37 37
-65 -1 -103 -26 -25 -36 -29 -63 -24 -45 8 -79 52 -72 91 12 67 85 86 136 36z
m3384 3 c14 -15 25 -36 25 -46 0 -27 -63 -88 -90 -88 -28 0 -80 52 -80 80 0
12 13 35 29 51 38 38 83 39 116 3z m349 -5 c33 -38 33 -73 1 -104 -36 -37 -76
-33 -114 10 -37 42 -39 70 -9 102 33 35 89 32 122 -8z m-3918 -145 c52 -55 54
-81 11 -121 -20 -18 -46 -33 -58 -33 -31 0 -89 62 -89 95 0 31 58 95 85 95 10
0 33 -16 51 -36z m3749 -18 c14 -18 25 -42 25 -53 0 -26 -63 -83 -91 -83 -27
0 -89 62 -89 88 0 11 20 38 45 61 51 47 65 46 110 -13z m-1870 -277 c53 -49
63 -77 40 -113 -20 -31 -75 -66 -102 -66 -22 0 -113 79 -113 99 0 17 100 121
117 121 7 0 34 -19 58 -41z m-959 -43 c94 -44 143 -134 123 -226 -22 -99 -95
-160 -191 -160 -192 0 -280 231 -135 355 68 59 125 67 203 31z m1928 10 c135
-41 191 -163 130 -285 -37 -73 -86 -104 -173 -109 -61 -4 -70 -2 -115 30 -119
80 -128 237 -20 326 61 51 104 60 178 38z m-1434 -27 c19 -11 118 -106 220
-211 l185 -191 204 206 c191 193 207 207 240 207 64 0 111 -53 91 -102 -5 -13
-118 -134 -252 -270 -224 -229 -246 -248 -278 -248 -31 0 -54 20 -282 248
-137 136 -251 257 -254 270 -10 37 5 72 39 92 40 25 44 25 87 -1z m-126 -420
c44 -34 35 -66 -36 -136 -73 -71 -95 -80 -137 -58 -58 30 -47 88 31 161 63 59
98 67 142 33z m1212 -40 c73 -71 82 -90 59 -125 -23 -36 -59 -47 -98 -30 -39
16 -137 123 -137 149 0 29 45 67 80 67 25 0 45 -13 96 -61z m-940 -228 c21
-16 88 -79 149 -140 l109 -111 141 140 c118 116 147 140 171 140 60 0 103 -55
83 -107 -15 -41 -327 -351 -365 -363 -20 -7 -40 -7 -55 -1 -38 15 -367 352
-374 383 -6 22 -1 33 23 58 38 38 68 38 118 1z"/>
<path d="M4107 7492 c-23 -25 -21 -58 4 -83 23 -23 54 -19 82 13 22 26 22 43
-3 68 -25 25 -62 26 -83 2z"/>
<path d="M6070 7490 c-11 -11 -20 -28 -20 -38 0 -41 69 -69 98 -40 18 18 14
63 -6 81 -25 22 -48 21 -72 -3z"/>
<path d="M5085 6870 l-28 -29 30 -35 31 -34 31 32 c38 39 38 49 5 75 -34 27
-35 27 -69 -9z"/>
<path d="M3079 4972 c-40 -163 -75 -305 -77 -315 -3 -17 6 -18 156 -15 88 2
163 6 167 9 3 4 -17 90 -45 190 -62 220 -121 423 -124 426 -1 1 -36 -131 -77
-295z"/>
<path d="M4116 2497 c-25 -18 -24 -64 3 -90 20 -20 23 -21 48 -7 41 24 51 46
33 78 -18 31 -56 40 -84 19z"/>
<path d="M6072 2494 c-32 -22 -30 -69 4 -91 24 -15 29 -15 53 -2 45 25 36 88
-14 103 -12 3 -30 -1 -43 -10z"/>
</g>
</svg>
